ply
format ascii 1.0
comment Created by Blender 2.78 (sub 0) - www.blender.org, source file: ''
element vertex 240
property float x
property float y
property float z
property float nx
property float ny
property float nz
element face 80
property list uchar uint vertex_indices
end_header
5.537152 -8.841990 -2.524176 0.038530 -0.748779 0.661699
6.076409 -8.883627 -2.602694 0.038530 -0.748779 0.661699
5.962477 -8.532973 -2.199259 0.038530 -0.748779 0.661699
5.374699 -8.341990 -2.199260 -0.102381 -0.315090 0.943524
5.962477 -8.532973 -2.199259 -0.102381 -0.315090 0.943524
5.800021 -8.032978 -2.049914 -0.102381 -0.315090 0.943524
4.949373 -8.032978 -2.524178 -0.700224 -0.268032 0.661699
5.076414 -8.558703 -2.602694 -0.700224 -0.268032 0.661699
5.374699 -8.341990 -2.199260 -0.700224 -0.268032 0.661699
5.374699 -7.723967 -2.199260 -0.607060 0.000000 0.794656
4.949373 -8.032978 -2.524178 -0.607060 0.000000 0.794656
5.374699 -8.341990 -2.199260 -0.607060 0.000000 0.794656
5.374699 -7.723967 -2.199260 -0.331305 0.000000 0.943524
5.374699 -8.341990 -2.199260 -0.331305 0.000000 0.943524
5.800021 -8.032978 -2.049914 -0.331305 0.000000 0.943524
5.537152 -7.223967 -2.524176 -0.471299 0.583122 0.661699
5.076414 -7.507253 -2.602694 -0.471299 0.583122 0.661699
5.374699 -7.723967 -2.199260 -0.471299 0.583122 0.661699
5.962477 -7.532983 -2.199259 -0.187594 0.577346 0.794657
5.537152 -7.223967 -2.524176 -0.187594 0.577346 0.794657
5.374699 -7.723967 -2.199260 -0.187594 0.577346 0.794657
5.962477 -7.532983 -2.199259 -0.102381 0.315090 0.943524
5.374699 -7.723967 -2.199260 -0.102381 0.315090 0.943524
5.800021 -8.032978 -2.049914 -0.102381 0.315090 0.943524
6.488211 -7.532981 -2.524178 0.408946 0.628425 0.661699
6.076409 -7.182329 -2.602694 0.408946 0.628425 0.661699
5.962477 -7.532983 -2.199259 0.408946 0.628425 0.661699
5.800021 -8.032978 -4.049913 0.102381 -0.315089 -0.943524
6.225344 -8.341990 -3.900568 0.102381 -0.315089 -0.943524
5.637566 -8.532973 -3.900568 0.102381 -0.315089 -0.943524
6.523628 -8.558703 -3.497133 0.700224 -0.268032 -0.661699
6.225344 -8.341990 -3.900568 0.700224 -0.268032 -0.661699
6.650669 -8.032978 -3.575649 0.700224 -0.268032 -0.661699
5.800021 -8.032978 -4.049913 -0.268034 -0.194736 -0.943523
5.637566 -8.532973 -3.900568 -0.268034 -0.194736 -0.943523
5.274292 -8.032978 -3.900565 -0.268034 -0.194736 -0.943523
5.800021 -8.032978 -4.049913 -0.268034 0.194736 -0.943523
5.274292 -8.032978 -3.900565 -0.268034 0.194736 -0.943523
5.637566 -7.532983 -3.900568 -0.268034 0.194736 -0.943523
5.800021 -8.032978 -4.049913 0.102381 0.315089 -0.943524
5.637566 -7.532983 -3.900568 0.102381 0.315089 -0.943524
6.225344 -7.723967 -3.900568 0.102381 0.315089 -0.943524
6.523628 -8.558703 -3.497133 0.904989 -0.268032 -0.330385
6.650669 -8.032978 -3.575649 0.904989 -0.268032 -0.330385
6.751079 -8.341990 -3.049914 0.904989 -0.268032 -0.330385
5.523633 -8.883627 -3.497133 0.024746 -0.943521 -0.330387
6.062890 -8.841990 -3.575651 0.024746 -0.943521 -0.330387
5.800021 -9.032978 -3.049914 0.024746 -0.943521 -0.330387
4.905595 -8.032978 -3.497129 -0.889697 -0.315095 -0.330385
5.111832 -8.532975 -3.575650 -0.889697 -0.315095 -0.330385
4.848963 -8.341990 -3.049914 -0.889697 -0.315095 -0.330385
5.523633 -7.182329 -3.497133 -0.574602 0.748784 -0.330387
5.111832 -7.532981 -3.575650 -0.574602 0.748784 -0.330387
5.212235 -7.223961 -3.049914 -0.574602 0.748784 -0.330387
6.523628 -7.507253 -3.497133 0.534576 0.777864 -0.330387
6.062890 -7.223967 -3.575651 0.534576 0.777864 -0.330387
6.387807 -7.223961 -3.049914 0.534576 0.777864 -0.330387
6.523628 -8.558703 -3.497133 0.802609 -0.583126 -0.125628
6.751079 -8.341990 -3.049914 0.802609 -0.583126 -0.125628
6.387807 -8.841995 -3.049914 0.802609 -0.583126 -0.125628
5.523633 -8.883627 -3.497133 -0.306568 -0.943522 -0.125630
5.800021 -9.032978 -3.049914 -0.306568 -0.943522 -0.125630
5.212235 -8.841995 -3.049914 -0.306568 -0.943522 -0.125630
4.905595 -8.032978 -3.497129 -0.992077 -0.000000 -0.125628
4.848963 -8.341990 -3.049914 -0.992077 -0.000000 -0.125628
4.848963 -7.723966 -3.049914 -0.992077 -0.000000 -0.125628
5.523633 -7.182329 -3.497133 -0.306569 0.943522 -0.125628
5.212235 -7.223961 -3.049914 -0.306569 0.943522 -0.125628
5.800021 -7.032978 -3.049914 -0.306569 0.943522 -0.125628
6.523628 -7.507253 -3.497133 0.802609 0.583126 -0.125628
6.387807 -7.223961 -3.049914 0.802609 0.583126 -0.125628
6.751079 -7.723966 -3.049914 0.802609 0.583126 -0.125628
6.076409 -8.883627 -2.602694 0.408946 -0.628425 0.661698
6.488211 -8.532975 -2.524178 0.408946 -0.628425 0.661698
5.962477 -8.532973 -2.199259 0.408946 -0.628425 0.661698
5.076414 -8.558703 -2.602694 -0.471299 -0.583122 0.661699
5.537152 -8.841990 -2.524176 -0.471299 -0.583122 0.661699
5.374699 -8.341990 -2.199260 -0.471299 -0.583122 0.661699
5.076414 -7.507253 -2.602694 -0.700224 0.268032 0.661699
4.949373 -8.032978 -2.524178 -0.700224 0.268032 0.661699
5.374699 -7.723967 -2.199260 -0.700224 0.268032 0.661699
6.076409 -7.182329 -2.602694 0.038530 0.748779 0.661699
5.537152 -7.223967 -2.524176 0.038530 0.748779 0.661699
5.962477 -7.532983 -2.199259 0.038530 0.748779 0.661699
6.694448 -8.032978 -2.602698 0.724042 0.194736 0.661696
6.488211 -7.532981 -2.524178 0.724042 0.194736 0.661696
6.325751 -8.032978 -2.199262 0.724042 0.194736 0.661696
6.325751 -8.032978 -2.199262 0.268034 0.194737 0.943523
5.962477 -7.532983 -2.199259 0.268034 0.194737 0.943523
5.800021 -8.032978 -2.049914 0.268034 0.194737 0.943523
6.325751 -8.032978 -2.199262 0.491119 0.356821 0.794658
6.488211 -7.532981 -2.524178 0.491119 0.356821 0.794658
5.962477 -7.532983 -2.199259 0.491119 0.356821 0.794658
5.374699 -8.341990 -2.199260 -0.187594 -0.577346 0.794657
5.537152 -8.841990 -2.524176 -0.187594 -0.577346 0.794657
5.962477 -8.532973 -2.199259 -0.187594 -0.577346 0.794657
5.962477 -8.532973 -2.199259 0.268034 -0.194737 0.943523
6.325751 -8.032978 -2.199262 0.268034 -0.194737 0.943523
5.800021 -8.032978 -2.049914 0.268034 -0.194737 0.943523
5.962477 -8.532973 -2.199259 0.491119 -0.356821 0.794658
6.488211 -8.532975 -2.524178 0.491119 -0.356821 0.794658
6.325751 -8.032978 -2.199262 0.491119 -0.356821 0.794658
6.488211 -8.532975 -2.524178 0.724042 -0.194736 0.661695
6.694448 -8.032978 -2.602698 0.724042 -0.194736 0.661695
6.325751 -8.032978 -2.199262 0.724042 -0.194736 0.661695
6.751079 -7.723966 -3.049914 0.889697 0.315095 0.330385
6.488211 -7.532981 -2.524178 0.889697 0.315095 0.330385
6.694448 -8.032978 -2.602698 0.889697 0.315095 0.330385
6.751079 -7.723966 -3.049914 0.794656 0.577348 0.187595
6.387807 -7.223961 -3.049914 0.794656 0.577348 0.187595
6.488211 -7.532981 -2.524178 0.794656 0.577348 0.187595
6.387807 -7.223961 -3.049914 0.574602 0.748784 0.330387
6.076409 -7.182329 -2.602694 0.574602 0.748784 0.330387
6.488211 -7.532981 -2.524178 0.574602 0.748784 0.330387
5.800021 -7.032978 -3.049914 -0.024747 0.943521 0.330386
5.537152 -7.223967 -2.524176 -0.024747 0.943521 0.330386
6.076409 -7.182329 -2.602694 -0.024747 0.943521 0.330386
5.800021 -7.032978 -3.049914 -0.303531 0.934171 0.187598
5.212235 -7.223961 -3.049914 -0.303531 0.934171 0.187598
5.537152 -7.223967 -2.524176 -0.303531 0.934171 0.187598
5.212235 -7.223961 -3.049914 -0.534576 0.777864 0.330387
5.076414 -7.507253 -2.602694 -0.534576 0.777864 0.330387
5.537152 -7.223967 -2.524176 -0.534576 0.777864 0.330387
4.848963 -7.723966 -3.049914 -0.904989 0.268032 0.330385
4.949373 -8.032978 -2.524178 -0.904989 0.268032 0.330385
5.076414 -7.507253 -2.602694 -0.904989 0.268032 0.330385
4.848963 -7.723966 -3.049914 -0.982246 0.000000 0.187599
4.848963 -8.341990 -3.049914 -0.982246 0.000000 0.187599
4.949373 -8.032978 -2.524178 -0.982246 0.000000 0.187599
4.848963 -8.341990 -3.049914 -0.904989 -0.268032 0.330385
5.076414 -8.558703 -2.602694 -0.904989 -0.268032 0.330385
4.949373 -8.032978 -2.524178 -0.904989 -0.268032 0.330385
5.212235 -8.841995 -3.049914 -0.534576 -0.777864 0.330388
5.537152 -8.841990 -2.524176 -0.534576 -0.777864 0.330388
5.076414 -8.558703 -2.602694 -0.534576 -0.777864 0.330388
5.212235 -8.841995 -3.049914 -0.303530 -0.934171 0.187598
5.800021 -9.032978 -3.049914 -0.303530 -0.934171 0.187598
5.537152 -8.841990 -2.524176 -0.303530 -0.934171 0.187598
5.800021 -9.032978 -3.049914 -0.024746 -0.943521 0.330387
6.076409 -8.883627 -2.602694 -0.024746 -0.943521 0.330387
5.537152 -8.841990 -2.524176 -0.024746 -0.943521 0.330387
6.387807 -8.841995 -3.049914 0.574601 -0.748784 0.330388
6.488211 -8.532975 -2.524178 0.574601 -0.748784 0.330388
6.076409 -8.883627 -2.602694 0.574601 -0.748784 0.330388
6.387807 -8.841995 -3.049914 0.794656 -0.577347 0.187595
6.751079 -8.341990 -3.049914 0.794656 -0.577347 0.187595
6.488211 -8.532975 -2.524178 0.794656 -0.577347 0.187595
6.751079 -8.341990 -3.049914 0.889697 -0.315095 0.330385
6.694448 -8.032978 -2.602698 0.889697 -0.315095 0.330385
6.488211 -8.532975 -2.524178 0.889697 -0.315095 0.330385
6.387807 -7.223961 -3.049914 0.306569 0.943522 0.125628
5.800021 -7.032978 -3.049914 0.306569 0.943522 0.125628
6.076409 -7.182329 -2.602694 0.306569 0.943522 0.125628
6.387807 -7.223961 -3.049914 0.303531 0.934171 -0.187598
6.062890 -7.223967 -3.575651 0.303531 0.934171 -0.187598
5.800021 -7.032978 -3.049914 0.303531 0.934171 -0.187598
6.062890 -7.223967 -3.575651 0.024747 0.943521 -0.330386
5.523633 -7.182329 -3.497133 0.024747 0.943521 -0.330386
5.800021 -7.032978 -3.049914 0.024747 0.943521 -0.330386
5.212235 -7.223961 -3.049914 -0.802609 0.583126 0.125628
4.848963 -7.723966 -3.049914 -0.802609 0.583126 0.125628
5.076414 -7.507253 -2.602694 -0.802609 0.583126 0.125628
5.212235 -7.223961 -3.049914 -0.794656 0.577348 -0.187595
5.111832 -7.532981 -3.575650 -0.794656 0.577348 -0.187595
4.848963 -7.723966 -3.049914 -0.794656 0.577348 -0.187595
5.111832 -7.532981 -3.575650 -0.889697 0.315095 -0.330385
4.905595 -8.032978 -3.497129 -0.889697 0.315095 -0.330385
4.848963 -7.723966 -3.049914 -0.889697 0.315095 -0.330385
4.848963 -8.341990 -3.049914 -0.802610 -0.583126 0.125628
5.212235 -8.841995 -3.049914 -0.802610 -0.583126 0.125628
5.076414 -8.558703 -2.602694 -0.802610 -0.583126 0.125628
4.848963 -8.341990 -3.049914 -0.794656 -0.577347 -0.187595
5.111832 -8.532975 -3.575650 -0.794656 -0.577347 -0.187595
5.212235 -8.841995 -3.049914 -0.794656 -0.577347 -0.187595
5.111832 -8.532975 -3.575650 -0.574601 -0.748784 -0.330388
5.523633 -8.883627 -3.497133 -0.574601 -0.748784 -0.330388
5.212235 -8.841995 -3.049914 -0.574601 -0.748784 -0.330388
5.800021 -9.032978 -3.049914 0.306568 -0.943522 0.125630
6.387807 -8.841995 -3.049914 0.306568 -0.943522 0.125630
6.076409 -8.883627 -2.602694 0.306568 -0.943522 0.125630
5.800021 -9.032978 -3.049914 0.303530 -0.934171 -0.187598
6.062890 -8.841990 -3.575651 0.303530 -0.934171 -0.187598
6.387807 -8.841995 -3.049914 0.303530 -0.934171 -0.187598
6.062890 -8.841990 -3.575651 0.534576 -0.777864 -0.330388
6.523628 -8.558703 -3.497133 0.534576 -0.777864 -0.330388
6.387807 -8.841995 -3.049914 0.534576 -0.777864 -0.330388
6.751079 -8.341990 -3.049914 0.992077 0.000000 0.125628
6.751079 -7.723966 -3.049914 0.992077 0.000000 0.125628
6.694448 -8.032978 -2.602698 0.992077 0.000000 0.125628
6.751079 -8.341990 -3.049914 0.982246 0.000000 -0.187599
6.650669 -8.032978 -3.575649 0.982246 0.000000 -0.187599
6.751079 -7.723966 -3.049914 0.982246 0.000000 -0.187599
6.650669 -8.032978 -3.575649 0.904989 0.268032 -0.330385
6.523628 -7.507253 -3.497133 0.904989 0.268032 -0.330385
6.751079 -7.723966 -3.049914 0.904989 0.268032 -0.330385
6.225344 -7.723967 -3.900568 0.471299 0.583122 -0.661699
6.062890 -7.223967 -3.575651 0.471299 0.583122 -0.661699
6.523628 -7.507253 -3.497133 0.471299 0.583122 -0.661699
6.225344 -7.723967 -3.900568 0.187594 0.577346 -0.794658
5.637566 -7.532983 -3.900568 0.187594 0.577346 -0.794658
6.062890 -7.223967 -3.575651 0.187594 0.577346 -0.794658
5.637566 -7.532983 -3.900568 -0.038530 0.748779 -0.661699
5.523633 -7.182329 -3.497133 -0.038530 0.748779 -0.661699
6.062890 -7.223967 -3.575651 -0.038530 0.748779 -0.661699
5.637566 -7.532983 -3.900568 -0.408946 0.628425 -0.661699
5.111832 -7.532981 -3.575650 -0.408946 0.628425 -0.661699
5.523633 -7.182329 -3.497133 -0.408946 0.628425 -0.661699
5.637566 -7.532983 -3.900568 -0.491119 0.356821 -0.794658
5.274292 -8.032978 -3.900565 -0.491119 0.356821 -0.794658
5.111832 -7.532981 -3.575650 -0.491119 0.356821 -0.794658
5.274292 -8.032978 -3.900565 -0.724042 0.194736 -0.661695
4.905595 -8.032978 -3.497129 -0.724042 0.194736 -0.661695
5.111832 -7.532981 -3.575650 -0.724042 0.194736 -0.661695
5.274292 -8.032978 -3.900565 -0.724042 -0.194736 -0.661696
5.111832 -8.532975 -3.575650 -0.724042 -0.194736 -0.661696
4.905595 -8.032978 -3.497129 -0.724042 -0.194736 -0.661696
5.274292 -8.032978 -3.900565 -0.491119 -0.356821 -0.794658
5.637566 -8.532973 -3.900568 -0.491119 -0.356821 -0.794658
5.111832 -8.532975 -3.575650 -0.491119 -0.356821 -0.794658
5.637566 -8.532973 -3.900568 -0.408946 -0.628425 -0.661698
5.523633 -8.883627 -3.497133 -0.408946 -0.628425 -0.661698
5.111832 -8.532975 -3.575650 -0.408946 -0.628425 -0.661698
6.650669 -8.032978 -3.575649 0.700224 0.268032 -0.661699
6.225344 -7.723967 -3.900568 0.700224 0.268032 -0.661699
6.523628 -7.507253 -3.497133 0.700224 0.268032 -0.661699
6.650669 -8.032978 -3.575649 0.607060 0.000000 -0.794656
6.225344 -8.341990 -3.900568 0.607060 0.000000 -0.794656
6.225344 -7.723967 -3.900568 0.607060 0.000000 -0.794656
6.225344 -8.341990 -3.900568 0.331304 0.000000 -0.943524
5.800021 -8.032978 -4.049913 0.331304 0.000000 -0.943524
6.225344 -7.723967 -3.900568 0.331304 0.000000 -0.943524
5.637566 -8.532973 -3.900568 -0.038530 -0.748779 -0.661699
6.062890 -8.841990 -3.575651 -0.038530 -0.748779 -0.661699
5.523633 -8.883627 -3.497133 -0.038530 -0.748779 -0.661699
5.637566 -8.532973 -3.900568 0.187594 -0.577346 -0.794658
6.225344 -8.341990 -3.900568 0.187594 -0.577346 -0.794658
6.062890 -8.841990 -3.575651 0.187594 -0.577346 -0.794658
6.225344 -8.341990 -3.900568 0.471299 -0.583122 -0.661699
6.523628 -8.558703 -3.497133 0.471299 -0.583122 -0.661699
6.062890 -8.841990 -3.575651 0.471299 -0.583122 -0.661699
3 0 1 2
3 3 4 5
3 6 7 8
3 9 10 11
3 12 13 14
3 15 16 17
3 18 19 20
3 21 22 23
3 24 25 26
3 27 28 29
3 30 31 32
3 33 34 35
3 36 37 38
3 39 40 41
3 42 43 44
3 45 46 47
3 48 49 50
3 51 52 53
3 54 55 56
3 57 58 59
3 60 61 62
3 63 64 65
3 66 67 68
3 69 70 71
3 72 73 74
3 75 76 77
3 78 79 80
3 81 82 83
3 84 85 86
3 87 88 89
3 90 91 92
3 93 94 95
3 96 97 98
3 99 100 101
3 102 103 104
3 105 106 107
3 108 109 110
3 111 112 113
3 114 115 116
3 117 118 119
3 120 121 122
3 123 124 125
3 126 127 128
3 129 130 131
3 132 133 134
3 135 136 137
3 138 139 140
3 141 142 143
3 144 145 146
3 147 148 149
3 150 151 152
3 153 154 155
3 156 157 158
3 159 160 161
3 162 163 164
3 165 166 167
3 168 169 170
3 171 172 173
3 174 175 176
3 177 178 179
3 180 181 182
3 183 184 185
3 186 187 188
3 189 190 191
3 192 193 194
3 195 196 197
3 198 199 200
3 201 202 203
3 204 205 206
3 207 208 209
3 210 211 212
3 213 214 215
3 216 217 218
3 219 220 221
3 222 223 224
3 225 226 227
3 228 229 230
3 231 232 233
3 234 235 236
3 237 238 239
